<?xml version="1.0" standalone="no"?><!DOCTYPE svg PUBLIC "-//W3C//DTD SVG 1.1//EN" "http://www.w3.org/Graphics/SVG/1.1/DTD/svg11.dtd"><svg t="1567070181150" class="icon" viewBox="0 0 1024 1024" version="1.1" xmlns="http://www.w3.org/2000/svg" p-id="1088" xmlns:xlink="http://www.w3.org/1999/xlink" width="200" height="200"><defs><style type="text/css"></style></defs><path d="M231.68 554.666667m-42.666667 0a42.666667 42.666667 0 1 0 85.333334 0 42.666667 42.666667 0 1 0-85.333334 0Z" fill="#FF9B57" p-id="1089"></path><path d="M512 525.226667a197.546667 197.546667 0 0 1-197.333333-197.333334 42.666667 42.666667 0 0 1 85.333333 0 112 112 0 1 0 224 0 42.666667 42.666667 0 0 1 85.333333 0A197.546667 197.546667 0 0 1 512 525.226667z" fill="#FD8F9E" p-id="1090"></path><path d="M666.666667 374.4a42.666667 42.666667 0 0 1-42.666667-42.666667 112 112 0 1 0-224 0 42.666667 42.666667 0 1 1-85.333333 0 197.333333 197.333333 0 1 1 394.666666 0 42.666667 42.666667 0 0 1-42.666666 42.666667z" fill="#FC455D" p-id="1091"></path><path d="M737.706667 445.44a113.92 113.92 0 0 1-113.706667-113.706667 42.666667 42.666667 0 0 1 85.333333 0 28.373333 28.373333 0 0 0 56.746667 0 42.666667 42.666667 0 1 1 85.333333 0 113.92 113.92 0 0 1-113.706666 113.706667zM286.293333 445.44a113.92 113.92 0 0 1-113.706666-113.706667 42.666667 42.666667 0 1 1 85.333333 0 28.373333 28.373333 0 1 0 56.746667 0 42.666667 42.666667 0 0 1 85.333333 0 113.92 113.92 0 0 1-113.706667 113.706667z" fill="#FC455D" p-id="1092"></path><path d="M737.706667 857.6a42.666667 42.666667 0 0 1-42.666667-42.666667A186.666667 186.666667 0 0 0 512 625.493333a186.666667 186.666667 0 0 0-183.04 189.44 42.666667 42.666667 0 0 1-85.333333 0A272 272 0 0 1 512 540.16 272 272 0 0 1 780.373333 814.933333a42.666667 42.666667 0 0 1-42.666666 42.666667z" fill="#FD8F9E" p-id="1093"></path></svg>